<svg width="322" height="281" viewBox="0 0 322 281" fill="none" xmlns="http://www.w3.org/2000/svg">
<rect x="7" y="36" width="67" height="197" fill="#D9D9D9"/>
<rect x="85" y="86" width="67" height="147" fill="#D9D9D9"/>
<rect x="255" y="145" width="67" height="88" fill="#D9D9D9"/>
<rect x="170" width="67" height="233" fill="#D9D9D9"/>
<path d="M194.169 275.76V275.36C194.716 275.333 195.183 275.187 195.569 274.92C195.969 274.653 196.269 274.2 196.469 273.56C196.669 272.92 196.769 272.047 196.769 270.94V259.96C196.769 259.467 196.729 259.107 196.649 258.88C196.583 258.64 196.436 258.48 196.209 258.4C195.983 258.307 195.656 258.253 195.229 258.24V257.84C195.536 257.853 195.943 257.867 196.449 257.88C196.969 257.893 197.509 257.9 198.069 257.9C198.629 257.9 199.176 257.893 199.709 257.88C200.256 257.867 200.703 257.853 201.049 257.84V258.24C200.609 258.253 200.276 258.307 200.049 258.4C199.836 258.48 199.689 258.64 199.609 258.88C199.543 259.107 199.509 259.467 199.509 259.96V267.28C199.509 267.827 199.503 268.42 199.489 269.06C199.489 269.7 199.463 270.32 199.409 270.92C199.369 271.52 199.289 272.047 199.169 272.5C198.916 273.433 198.369 274.207 197.529 274.82C196.689 275.447 195.569 275.76 194.169 275.76ZM205.59 261.38C206.15 261.38 206.63 261.46 207.03 261.62C207.43 261.78 207.723 261.92 207.91 262.04C208.363 262.373 208.637 262.16 208.73 261.4H209.17C209.143 261.787 209.123 262.247 209.11 262.78C209.097 263.3 209.09 264 209.09 264.88H208.65C208.583 264.387 208.457 263.907 208.27 263.44C208.083 262.973 207.81 262.587 207.45 262.28C207.09 261.96 206.617 261.8 206.03 261.8C205.617 261.8 205.27 261.92 204.99 262.16C204.723 262.4 204.59 262.74 204.59 263.18C204.59 263.58 204.71 263.933 204.95 264.24C205.19 264.533 205.497 264.813 205.87 265.08C206.257 265.333 206.657 265.613 207.07 265.92C207.55 266.24 207.977 266.567 208.35 266.9C208.723 267.22 209.023 267.58 209.25 267.98C209.477 268.367 209.59 268.827 209.59 269.36C209.59 269.973 209.417 270.5 209.07 270.94C208.737 271.367 208.29 271.7 207.73 271.94C207.183 272.167 206.577 272.28 205.91 272.28C205.55 272.28 205.223 272.247 204.93 272.18C204.637 272.113 204.377 272.027 204.15 271.92C203.977 271.827 203.817 271.74 203.67 271.66C203.537 271.58 203.397 271.513 203.25 271.46C203.117 271.393 202.997 271.42 202.89 271.54C202.797 271.66 202.723 271.86 202.67 272.14H202.23C202.257 271.713 202.277 271.193 202.29 270.58C202.303 269.967 202.31 269.153 202.31 268.14H202.75C202.843 268.873 202.983 269.52 203.17 270.08C203.37 270.627 203.657 271.06 204.03 271.38C204.403 271.687 204.883 271.84 205.47 271.84C205.723 271.84 205.963 271.787 206.19 271.68C206.43 271.573 206.623 271.407 206.77 271.18C206.93 270.953 207.01 270.647 207.01 270.26C207.01 269.673 206.81 269.187 206.41 268.8C206.01 268.413 205.51 268 204.91 267.56C204.457 267.227 204.03 266.9 203.63 266.58C203.243 266.26 202.923 265.9 202.67 265.5C202.43 265.1 202.31 264.627 202.31 264.08C202.31 263.48 202.463 262.987 202.77 262.6C203.077 262.2 203.477 261.9 203.97 261.7C204.477 261.487 205.017 261.38 205.59 261.38Z" fill="black"/>
<path d="M276.696 257.56C277.576 257.56 278.296 257.693 278.856 257.96C279.429 258.213 279.936 258.513 280.376 258.86C280.642 259.06 280.842 259.087 280.976 258.94C281.122 258.78 281.222 258.413 281.276 257.84H281.736C281.709 258.347 281.689 258.967 281.676 259.7C281.662 260.433 281.656 261.4 281.656 262.6H281.196C281.116 262 281.029 261.5 280.936 261.1C280.842 260.687 280.709 260.333 280.536 260.04C280.376 259.747 280.149 259.467 279.856 259.2C279.496 258.8 279.062 258.507 278.556 258.32C278.062 258.12 277.542 258.02 276.996 258.02C276.302 258.02 275.696 258.207 275.176 258.58C274.669 258.94 274.242 259.44 273.896 260.08C273.562 260.707 273.309 261.44 273.136 262.28C272.976 263.12 272.896 264.013 272.896 264.96C272.896 265.933 272.982 266.84 273.156 267.68C273.342 268.507 273.609 269.233 273.956 269.86C274.316 270.473 274.756 270.953 275.276 271.3C275.809 271.647 276.422 271.82 277.116 271.82C277.609 271.82 278.116 271.727 278.636 271.54C279.156 271.353 279.582 271.067 279.916 270.68C280.356 270.28 280.656 269.807 280.816 269.26C280.976 268.7 281.102 267.96 281.196 267.04H281.656C281.656 268.293 281.662 269.307 281.676 270.08C281.689 270.84 281.709 271.48 281.736 272H281.276C281.222 271.427 281.129 271.067 280.996 270.92C280.876 270.773 280.669 270.793 280.376 270.98C279.882 271.327 279.356 271.633 278.796 271.9C278.249 272.153 277.542 272.28 276.676 272.28C275.316 272.28 274.122 271.993 273.096 271.42C272.069 270.847 271.269 270.02 270.696 268.94C270.136 267.86 269.856 266.56 269.856 265.04C269.856 263.547 270.149 262.24 270.736 261.12C271.322 260 272.129 259.127 273.156 258.5C274.182 257.873 275.362 257.56 276.696 257.56ZM289.099 259.88V264.6H293.739V265.2H289.099V269.9H288.379V265.2H283.719V264.6H288.379V259.88H289.099ZM300.662 259.88V264.6H305.302V265.2H300.662V269.9H299.942V265.2H295.282V264.6H299.942V259.88H300.662Z" fill="black"/>
<path d="M109.117 257.56C109.997 257.56 110.717 257.693 111.277 257.96C111.851 258.213 112.357 258.513 112.797 258.86C113.064 259.06 113.264 259.087 113.397 258.94C113.544 258.78 113.644 258.413 113.697 257.84H114.157C114.131 258.347 114.111 258.967 114.097 259.7C114.084 260.433 114.077 261.4 114.077 262.6H113.617C113.537 262 113.451 261.5 113.357 261.1C113.264 260.687 113.131 260.333 112.957 260.04C112.797 259.747 112.571 259.467 112.277 259.2C111.917 258.8 111.484 258.507 110.977 258.32C110.484 258.12 109.964 258.02 109.417 258.02C108.724 258.02 108.117 258.207 107.597 258.58C107.091 258.94 106.664 259.44 106.317 260.08C105.984 260.707 105.731 261.44 105.557 262.28C105.397 263.12 105.317 264.013 105.317 264.96C105.317 265.933 105.404 266.84 105.577 267.68C105.764 268.507 106.031 269.233 106.377 269.86C106.737 270.473 107.177 270.953 107.697 271.3C108.231 271.647 108.844 271.82 109.537 271.82C110.031 271.82 110.537 271.727 111.057 271.54C111.577 271.353 112.004 271.067 112.337 270.68C112.777 270.28 113.077 269.807 113.237 269.26C113.397 268.7 113.524 267.96 113.617 267.04H114.077C114.077 268.293 114.084 269.307 114.097 270.08C114.111 270.84 114.131 271.48 114.157 272H113.697C113.644 271.427 113.551 271.067 113.417 270.92C113.297 270.773 113.091 270.793 112.797 270.98C112.304 271.327 111.777 271.633 111.217 271.9C110.671 272.153 109.964 272.28 109.097 272.28C107.737 272.28 106.544 271.993 105.517 271.42C104.491 270.847 103.691 270.02 103.117 268.94C102.557 267.86 102.277 266.56 102.277 265.04C102.277 263.547 102.571 262.24 103.157 261.12C103.744 260 104.551 259.127 105.577 258.5C106.604 257.873 107.784 257.56 109.117 257.56ZM119.701 261.38C120.261 261.38 120.741 261.46 121.141 261.62C121.541 261.78 121.835 261.92 122.021 262.04C122.475 262.373 122.748 262.16 122.841 261.4H123.281C123.255 261.787 123.235 262.247 123.221 262.78C123.208 263.3 123.201 264 123.201 264.88H122.761C122.695 264.387 122.568 263.907 122.381 263.44C122.195 262.973 121.921 262.587 121.561 262.28C121.201 261.96 120.728 261.8 120.141 261.8C119.728 261.8 119.381 261.92 119.101 262.16C118.835 262.4 118.701 262.74 118.701 263.18C118.701 263.58 118.821 263.933 119.061 264.24C119.301 264.533 119.608 264.813 119.981 265.08C120.368 265.333 120.768 265.613 121.181 265.92C121.661 266.24 122.088 266.567 122.461 266.9C122.835 267.22 123.135 267.58 123.361 267.98C123.588 268.367 123.701 268.827 123.701 269.36C123.701 269.973 123.528 270.5 123.181 270.94C122.848 271.367 122.401 271.7 121.841 271.94C121.295 272.167 120.688 272.28 120.021 272.28C119.661 272.28 119.335 272.247 119.041 272.18C118.748 272.113 118.488 272.027 118.261 271.92C118.088 271.827 117.928 271.74 117.781 271.66C117.648 271.58 117.508 271.513 117.361 271.46C117.228 271.393 117.108 271.42 117.001 271.54C116.908 271.66 116.835 271.86 116.781 272.14H116.341C116.368 271.713 116.388 271.193 116.401 270.58C116.415 269.967 116.421 269.153 116.421 268.14H116.861C116.955 268.873 117.095 269.52 117.281 270.08C117.481 270.627 117.768 271.06 118.141 271.38C118.515 271.687 118.995 271.84 119.581 271.84C119.835 271.84 120.075 271.787 120.301 271.68C120.541 271.573 120.735 271.407 120.881 271.18C121.041 270.953 121.121 270.647 121.121 270.26C121.121 269.673 120.921 269.187 120.521 268.8C120.121 268.413 119.621 268 119.021 267.56C118.568 267.227 118.141 266.9 117.741 266.58C117.355 266.26 117.035 265.9 116.781 265.5C116.541 265.1 116.421 264.627 116.421 264.08C116.421 263.48 116.575 262.987 116.881 262.6C117.188 262.2 117.588 261.9 118.081 261.7C118.588 261.487 119.128 261.38 119.701 261.38ZM128.842 261.38C129.402 261.38 129.882 261.46 130.282 261.62C130.682 261.78 130.975 261.92 131.162 262.04C131.615 262.373 131.889 262.16 131.982 261.4H132.422C132.395 261.787 132.375 262.247 132.362 262.78C132.349 263.3 132.342 264 132.342 264.88H131.902C131.835 264.387 131.709 263.907 131.522 263.44C131.335 262.973 131.062 262.587 130.702 262.28C130.342 261.96 129.869 261.8 129.282 261.8C128.869 261.8 128.522 261.92 128.242 262.16C127.975 262.4 127.842 262.74 127.842 263.18C127.842 263.58 127.962 263.933 128.202 264.24C128.442 264.533 128.749 264.813 129.122 265.08C129.509 265.333 129.909 265.613 130.322 265.92C130.802 266.24 131.229 266.567 131.602 266.9C131.975 267.22 132.275 267.58 132.502 267.98C132.729 268.367 132.842 268.827 132.842 269.36C132.842 269.973 132.669 270.5 132.322 270.94C131.989 271.367 131.542 271.7 130.982 271.94C130.435 272.167 129.829 272.28 129.162 272.28C128.802 272.28 128.475 272.247 128.182 272.18C127.889 272.113 127.629 272.027 127.402 271.92C127.229 271.827 127.069 271.74 126.922 271.66C126.789 271.58 126.649 271.513 126.502 271.46C126.369 271.393 126.249 271.42 126.142 271.54C126.049 271.66 125.975 271.86 125.922 272.14H125.482C125.509 271.713 125.529 271.193 125.542 270.58C125.555 269.967 125.562 269.153 125.562 268.14H126.002C126.095 268.873 126.235 269.52 126.422 270.08C126.622 270.627 126.909 271.06 127.282 271.38C127.655 271.687 128.135 271.84 128.722 271.84C128.975 271.84 129.215 271.787 129.442 271.68C129.682 271.573 129.875 271.407 130.022 271.18C130.182 270.953 130.262 270.647 130.262 270.26C130.262 269.673 130.062 269.187 129.662 268.8C129.262 268.413 128.762 268 128.162 267.56C127.709 267.227 127.282 266.9 126.882 266.58C126.495 266.26 126.175 265.9 125.922 265.5C125.682 265.1 125.562 264.627 125.562 264.08C125.562 263.48 125.715 262.987 126.022 262.6C126.329 262.2 126.729 261.9 127.222 261.7C127.729 261.487 128.269 261.38 128.842 261.38Z" fill="black"/>
<path d="M18.3299 272V271.6C18.7699 271.573 19.0966 271.52 19.3099 271.44C19.5366 271.36 19.6833 271.2 19.7499 270.96C19.8299 270.72 19.8699 270.36 19.8699 269.88V259.96C19.8699 259.467 19.8299 259.107 19.7499 258.88C19.6833 258.64 19.5366 258.48 19.3099 258.4C19.0966 258.307 18.7699 258.253 18.3299 258.24V257.84C18.6899 257.853 19.1366 257.867 19.6699 257.88C20.2033 257.893 20.7366 257.9 21.2699 257.9C21.8566 257.9 22.4033 257.893 22.9099 257.88C23.4299 257.867 23.8433 257.853 24.1499 257.84V258.24C23.7233 258.253 23.3966 258.307 23.1699 258.4C22.9566 258.48 22.8099 258.64 22.7299 258.88C22.6499 259.107 22.6099 259.467 22.6099 259.96V269.88C22.6099 270.36 22.6499 270.72 22.7299 270.96C22.8099 271.2 22.9566 271.36 23.1699 271.44C23.3966 271.52 23.7233 271.573 24.1499 271.6V272C23.8433 271.973 23.4299 271.96 22.9099 271.96C22.4033 271.947 21.8566 271.94 21.2699 271.94C20.7366 271.94 20.2033 271.947 19.6699 271.96C19.1366 271.96 18.6899 271.973 18.3299 272ZM9.88992 272V271.6C10.3299 271.573 10.6566 271.52 10.8699 271.44C11.0966 271.36 11.2433 271.2 11.3099 270.96C11.3899 270.72 11.4299 270.36 11.4299 269.88V259.96C11.4299 259.467 11.3899 259.107 11.3099 258.88C11.2433 258.64 11.0966 258.48 10.8699 258.4C10.6566 258.307 10.3299 258.253 9.88992 258.24V257.84C10.2233 257.853 10.6499 257.867 11.1699 257.88C11.6899 257.893 12.2499 257.9 12.8499 257.9C13.3833 257.9 13.9099 257.893 14.4299 257.88C14.9499 257.867 15.3766 257.853 15.7099 257.84V258.24C15.2833 258.253 14.9566 258.307 14.7299 258.4C14.5166 258.48 14.3699 258.64 14.2899 258.88C14.2099 259.107 14.1699 259.467 14.1699 259.96V269.88C14.1699 270.36 14.2099 270.72 14.2899 270.96C14.3699 271.2 14.5166 271.36 14.7299 271.44C14.9566 271.52 15.2833 271.573 15.7099 271.6V272C15.3766 271.973 14.9499 271.96 14.4299 271.96C13.9099 271.947 13.3833 271.94 12.8499 271.94C12.2499 271.94 11.6899 271.947 11.1699 271.96C10.6499 271.96 10.2233 271.973 9.88992 272ZM13.0699 265.08V264.68H20.9699V265.08H13.0699ZM29.0559 258.38V261.68H31.6159V262.08H29.0559V270.04C29.0559 270.52 29.1425 270.86 29.3159 271.06C29.4892 271.26 29.7359 271.36 30.0559 271.36C30.3625 271.36 30.6425 271.247 30.8959 271.02C31.1492 270.78 31.3759 270.387 31.5759 269.84L31.9359 270C31.7359 270.653 31.4225 271.2 30.9959 271.64C30.5825 272.067 29.9959 272.28 29.2359 272.28C28.7825 272.28 28.3959 272.22 28.0759 272.1C27.7692 271.993 27.5025 271.833 27.2759 271.62C26.9825 271.313 26.7825 270.947 26.6759 270.52C26.5825 270.093 26.5359 269.527 26.5359 268.82V262.08H24.7759V261.68H26.5359V258.9C27.0159 258.887 27.4625 258.84 27.8759 258.76C28.2892 258.68 28.6825 258.553 29.0559 258.38ZM39.3471 261.38C39.8671 261.38 40.3004 261.453 40.6471 261.6C41.0071 261.747 41.2871 261.933 41.4871 262.16C41.7271 262.413 41.8938 262.753 41.9871 263.18C42.0804 263.593 42.1271 264.12 42.1271 264.76V270.14C42.1271 270.7 42.2204 271.08 42.4071 271.28C42.6071 271.48 42.9404 271.58 43.4071 271.58V272C43.1671 271.987 42.8071 271.973 42.3271 271.96C41.8471 271.933 41.3804 271.92 40.9271 271.92C40.4471 271.92 39.9804 271.933 39.5271 271.96C39.0871 271.973 38.7538 271.987 38.5271 272V271.58C38.9138 271.58 39.1871 271.48 39.3471 271.28C39.5204 271.08 39.6071 270.7 39.6071 270.14V264.08C39.6071 263.72 39.5804 263.4 39.5271 263.12C39.4738 262.827 39.3604 262.6 39.1871 262.44C39.0138 262.267 38.7471 262.18 38.3871 262.18C37.9738 262.18 37.6004 262.3 37.2671 262.54C36.9338 262.78 36.6671 263.113 36.4671 263.54C36.2804 263.953 36.1871 264.42 36.1871 264.94V270.14C36.1871 270.7 36.2671 271.08 36.4271 271.28C36.5871 271.48 36.8671 271.58 37.2671 271.58V272C37.0404 271.987 36.7071 271.973 36.2671 271.96C35.8404 271.933 35.4004 271.92 34.9471 271.92C34.4538 271.92 33.9538 271.933 33.4471 271.96C32.9404 271.973 32.5604 271.987 32.3071 272V271.58C32.8004 271.58 33.1471 271.48 33.3471 271.28C33.5604 271.08 33.6671 270.7 33.6671 270.14V263.84C33.6671 263.24 33.5671 262.8 33.3671 262.52C33.1804 262.227 32.8271 262.08 32.3071 262.08V261.66C32.7338 261.7 33.1471 261.72 33.5471 261.72C34.0404 261.72 34.5071 261.7 34.9471 261.66C35.4004 261.607 35.8138 261.533 36.1871 261.44V263.44C36.5204 262.707 36.9671 262.18 37.5271 261.86C38.0871 261.54 38.6938 261.38 39.3471 261.38ZM45.3671 261.38C45.8871 261.38 46.3204 261.453 46.6671 261.6C47.0271 261.747 47.3071 261.933 47.5071 262.16C47.7471 262.413 47.9138 262.753 48.0071 263.18C48.1004 263.593 48.1471 264.12 48.1471 264.76V270.14C48.1471 270.7 48.2471 271.08 48.4471 271.28C48.6604 271.48 49.0138 271.58 49.5071 271.58V272C49.2671 271.987 48.8938 271.973 48.3871 271.96C47.8938 271.933 47.4138 271.92 46.9471 271.92C46.4671 271.92 46.0004 271.933 45.5471 271.96C45.1071 271.973 44.7738 271.987 44.5471 272V271.58C44.9338 271.58 45.2071 271.48 45.3671 271.28C45.5404 271.08 45.6271 270.7 45.6271 270.14V264.08C45.6271 263.72 45.5938 263.4 45.5271 263.12C45.4738 262.827 45.3538 262.6 45.1671 262.44C44.9804 262.267 44.7004 262.18 44.3271 262.18C43.9138 262.18 43.5404 262.307 43.2071 262.56C42.8738 262.813 42.6071 263.153 42.4071 263.58C42.2204 263.993 42.1204 264.46 42.1071 264.98L42.0071 263.54C42.3671 262.713 42.8471 262.147 43.4471 261.84C44.0471 261.533 44.6871 261.38 45.3671 261.38ZM54.0554 256.34V270.14C54.0554 270.7 54.1554 271.08 54.3554 271.28C54.5687 271.48 54.9221 271.58 55.4154 271.58V272C55.1754 271.987 54.8087 271.973 54.3154 271.96C53.8354 271.933 53.3421 271.92 52.8354 271.92C52.3421 271.92 51.8354 271.933 51.3154 271.96C50.8087 271.973 50.4287 271.987 50.1754 272V271.58C50.6687 271.58 51.0154 271.48 51.2154 271.28C51.4287 271.08 51.5354 270.7 51.5354 270.14V258.74C51.5354 258.14 51.4421 257.7 51.2554 257.42C51.0687 257.127 50.7087 256.98 50.1754 256.98V256.56C50.6021 256.6 51.0154 256.62 51.4154 256.62C51.9221 256.62 52.3954 256.6 52.8354 256.56C53.2754 256.507 53.6821 256.433 54.0554 256.34Z" fill="black"/>
</svg>
