<svg width="413" height="456" viewBox="0 0 413 456" fill="none" xmlns="http://www.w3.org/2000/svg">
<path d="M12 175C12 167.82 17.8203 162 25 162H268.529C275.709 162 281.529 167.82 281.529 175V375.503H12V175Z" fill="#2D2A2A"/>
<path d="M105.881 177.142H262.437C264.618 177.142 266.387 178.911 266.387 181.092V357.476C266.387 359.906 264.417 361.875 261.987 361.875H105.881V177.142Z" fill="#4A4163"/>
<path d="M122.971 254.338V253.912L123.785 253.239C123.839 253.194 123.886 253.152 123.924 253.113C123.963 253.073 123.993 253.033 124.013 252.991C124.035 252.949 124.045 252.902 124.045 252.851C124.045 252.795 124.033 252.747 124.009 252.707C123.986 252.667 123.953 252.637 123.911 252.616C123.869 252.594 123.821 252.583 123.766 252.583C123.712 252.583 123.663 252.594 123.621 252.616C123.58 252.638 123.548 252.67 123.525 252.713C123.503 252.755 123.491 252.807 123.491 252.868H122.929C122.929 252.715 122.963 252.583 123.032 252.472C123.101 252.361 123.198 252.276 123.324 252.216C123.45 252.156 123.597 252.127 123.766 252.127C123.941 252.127 124.092 252.155 124.22 252.211C124.349 252.266 124.448 252.344 124.517 252.445C124.588 252.546 124.623 252.664 124.623 252.8C124.623 252.884 124.605 252.967 124.571 253.05C124.536 253.133 124.473 253.224 124.383 253.324C124.293 253.424 124.165 253.544 123.998 253.682L123.794 253.852V253.865H124.646V254.338H122.971ZM125.763 254.368C125.591 254.368 125.439 254.339 125.305 254.28C125.172 254.22 125.068 254.138 124.992 254.034C124.916 253.929 124.878 253.809 124.877 253.674H125.473C125.474 253.715 125.487 253.753 125.512 253.786C125.537 253.819 125.572 253.845 125.616 253.863C125.66 253.882 125.711 253.891 125.767 253.891C125.822 253.891 125.87 253.881 125.912 253.862C125.954 253.842 125.987 253.815 126.01 253.78C126.034 253.745 126.045 253.705 126.044 253.661C126.045 253.617 126.032 253.578 126.004 253.544C125.977 253.509 125.939 253.483 125.89 253.464C125.841 253.444 125.784 253.435 125.721 253.435H125.499V253.026H125.721C125.78 253.026 125.831 253.016 125.876 252.997C125.922 252.978 125.957 252.951 125.982 252.917C126.007 252.883 126.02 252.844 126.019 252.8C126.02 252.757 126.009 252.72 125.988 252.687C125.967 252.654 125.937 252.629 125.898 252.61C125.861 252.592 125.817 252.583 125.767 252.583C125.713 252.583 125.665 252.592 125.623 252.611C125.581 252.631 125.548 252.657 125.523 252.691C125.499 252.725 125.487 252.764 125.486 252.808H124.919C124.92 252.675 124.957 252.557 125.029 252.455C125.102 252.352 125.202 252.272 125.33 252.214C125.457 252.156 125.603 252.127 125.767 252.127C125.929 252.127 126.071 252.154 126.195 252.209C126.319 252.263 126.416 252.339 126.485 252.435C126.556 252.53 126.591 252.639 126.59 252.762C126.591 252.884 126.549 252.984 126.464 253.062C126.38 253.14 126.272 253.186 126.142 253.201V253.218C126.319 253.237 126.451 253.291 126.54 253.379C126.629 253.468 126.672 253.578 126.671 253.712C126.672 253.84 126.633 253.953 126.556 254.052C126.479 254.15 126.372 254.228 126.235 254.284C126.099 254.34 125.941 254.368 125.763 254.368Z" fill="white" fill-opacity="0.23"/>
<path d="M122.954 263.424V262.997L123.768 262.324C123.822 262.279 123.868 262.237 123.906 262.198C123.945 262.159 123.975 262.118 123.996 262.076C124.017 262.034 124.028 261.987 124.028 261.936C124.028 261.88 124.016 261.832 123.992 261.793C123.968 261.753 123.935 261.722 123.894 261.701C123.852 261.679 123.803 261.668 123.749 261.668C123.694 261.668 123.646 261.679 123.604 261.701C123.563 261.723 123.531 261.755 123.508 261.798C123.485 261.84 123.474 261.892 123.474 261.953H122.911C122.911 261.8 122.946 261.668 123.015 261.557C123.083 261.446 123.181 261.361 123.307 261.301C123.432 261.242 123.58 261.212 123.749 261.212C123.923 261.212 124.075 261.24 124.202 261.296C124.331 261.351 124.43 261.43 124.5 261.53C124.57 261.631 124.605 261.75 124.605 261.885C124.605 261.969 124.588 262.052 124.553 262.136C124.518 262.218 124.456 262.309 124.365 262.409C124.275 262.509 124.147 262.629 123.981 262.767L123.776 262.938V262.951H124.629V263.424H122.954ZM124.825 263.083V262.622L125.703 261.242H126.121V261.855H125.882L125.409 262.605V262.622H126.704V263.083H124.825ZM125.886 263.424V262.942L125.899 262.742V261.242H126.453V263.424H125.886Z" fill="white" fill-opacity="0.23"/>
<path d="M122.98 272.509V272.083L123.794 271.409C123.848 271.365 123.894 271.323 123.933 271.284C123.972 271.244 124.002 271.203 124.022 271.161C124.043 271.119 124.054 271.073 124.054 271.022C124.054 270.965 124.042 270.918 124.018 270.878C123.994 270.838 123.962 270.807 123.92 270.786C123.878 270.764 123.83 270.753 123.775 270.753C123.72 270.753 123.672 270.764 123.63 270.786C123.589 270.808 123.557 270.84 123.534 270.883C123.511 270.926 123.5 270.978 123.5 271.039H122.938C122.938 270.885 122.972 270.753 123.041 270.642C123.11 270.532 123.207 270.446 123.333 270.387C123.459 270.327 123.606 270.297 123.775 270.297C123.95 270.297 124.101 270.325 124.229 270.381C124.357 270.437 124.456 270.515 124.526 270.616C124.596 270.717 124.632 270.835 124.632 270.97C124.632 271.054 124.614 271.138 124.579 271.221C124.545 271.303 124.482 271.394 124.392 271.495C124.302 271.595 124.173 271.714 124.007 271.853L123.803 272.023V272.036H124.655V272.509H122.98ZM125.793 272.539C125.626 272.539 125.477 272.509 125.347 272.45C125.218 272.391 125.116 272.309 125.041 272.204C124.967 272.1 124.93 271.98 124.928 271.844H125.504C125.506 271.919 125.535 271.979 125.591 272.024C125.648 272.069 125.715 272.091 125.793 272.091C125.854 272.091 125.907 272.078 125.953 272.053C125.999 272.027 126.035 271.99 126.062 271.942C126.088 271.894 126.101 271.839 126.1 271.776C126.101 271.712 126.088 271.657 126.062 271.61C126.035 271.562 125.999 271.525 125.953 271.5C125.907 271.474 125.854 271.46 125.793 271.46C125.731 271.46 125.673 271.476 125.62 271.506C125.567 271.536 125.528 271.578 125.504 271.631L124.984 271.529L125.069 270.327H126.535V270.8H125.555L125.512 271.282H125.525C125.559 271.215 125.618 271.161 125.702 271.117C125.785 271.073 125.883 271.051 125.994 271.051C126.124 271.051 126.239 271.082 126.341 271.142C126.443 271.202 126.524 271.286 126.583 271.392C126.642 271.498 126.672 271.62 126.671 271.759C126.672 271.911 126.636 272.046 126.562 272.164C126.49 272.281 126.388 272.373 126.257 272.44C126.125 272.506 125.971 272.539 125.793 272.539Z" fill="white" fill-opacity="0.23"/>
<path d="M122.957 281.594V281.168L123.771 280.495C123.825 280.45 123.871 280.408 123.909 280.369C123.948 280.329 123.978 280.288 123.999 280.246C124.02 280.204 124.031 280.158 124.031 280.107C124.031 280.051 124.019 280.003 123.994 279.963C123.971 279.923 123.938 279.893 123.896 279.871C123.855 279.849 123.806 279.838 123.752 279.838C123.697 279.838 123.649 279.849 123.607 279.871C123.565 279.893 123.534 279.926 123.511 279.968C123.488 280.011 123.477 280.063 123.477 280.124H122.914C122.914 279.97 122.949 279.838 123.018 279.728C123.086 279.617 123.184 279.532 123.309 279.472C123.435 279.412 123.583 279.382 123.752 279.382C123.926 279.382 124.078 279.41 124.205 279.467C124.334 279.522 124.433 279.6 124.503 279.701C124.573 279.802 124.608 279.92 124.608 280.056C124.608 280.139 124.591 280.223 124.556 280.306C124.521 280.388 124.459 280.48 124.368 280.58C124.278 280.68 124.15 280.799 123.984 280.938L123.779 281.108V281.121H124.632V281.594H122.957ZM125.808 281.624C125.681 281.624 125.56 281.604 125.446 281.564C125.332 281.524 125.231 281.46 125.143 281.374C125.055 281.287 124.986 281.174 124.936 281.035C124.886 280.896 124.861 280.727 124.862 280.529C124.863 280.352 124.886 280.193 124.93 280.051C124.976 279.91 125.04 279.79 125.123 279.69C125.207 279.591 125.307 279.515 125.424 279.462C125.54 279.409 125.67 279.382 125.812 279.382C125.973 279.382 126.114 279.413 126.236 279.475C126.359 279.537 126.456 279.62 126.528 279.723C126.602 279.826 126.644 279.94 126.656 280.064H126.072C126.059 280.002 126.028 279.957 125.979 279.929C125.93 279.9 125.875 279.885 125.812 279.885C125.688 279.885 125.597 279.939 125.539 280.047C125.481 280.155 125.452 280.297 125.45 280.473H125.463C125.491 280.407 125.533 280.349 125.589 280.302C125.645 280.254 125.71 280.218 125.785 280.192C125.859 280.166 125.938 280.154 126.021 280.154C126.153 280.154 126.269 280.184 126.367 280.243C126.467 280.303 126.544 280.385 126.6 280.488C126.655 280.592 126.682 280.711 126.682 280.844C126.682 281 126.646 281.137 126.571 281.254C126.497 281.371 126.394 281.462 126.263 281.527C126.132 281.592 125.98 281.624 125.808 281.624ZM125.804 281.176C125.863 281.176 125.915 281.163 125.961 281.136C126.007 281.109 126.043 281.072 126.068 281.025C126.094 280.978 126.107 280.925 126.106 280.865C126.107 280.805 126.094 280.752 126.068 280.706C126.043 280.659 126.007 280.622 125.961 280.595C125.915 280.568 125.863 280.554 125.804 280.554C125.761 280.554 125.72 280.562 125.684 280.578C125.647 280.593 125.616 280.614 125.589 280.643C125.562 280.67 125.54 280.703 125.525 280.742C125.51 280.779 125.502 280.821 125.501 280.865C125.502 280.925 125.516 280.978 125.542 281.025C125.568 281.072 125.604 281.109 125.649 281.136C125.695 281.163 125.746 281.176 125.804 281.176Z" fill="white" fill-opacity="0.23"/>
<path d="M123.068 290.679V290.253L123.882 289.58C123.936 289.535 123.982 289.493 124.021 289.454C124.06 289.414 124.089 289.374 124.11 289.332C124.131 289.29 124.142 289.243 124.142 289.192C124.142 289.136 124.13 289.088 124.106 289.048C124.082 289.008 124.05 288.978 124.008 288.957C123.966 288.935 123.918 288.924 123.863 288.924C123.808 288.924 123.76 288.935 123.718 288.957C123.677 288.979 123.645 289.011 123.622 289.054C123.599 289.096 123.588 289.148 123.588 289.209H123.026C123.026 289.056 123.06 288.924 123.129 288.813C123.198 288.702 123.295 288.617 123.421 288.557C123.546 288.497 123.694 288.468 123.863 288.468C124.038 288.468 124.189 288.496 124.317 288.552C124.445 288.607 124.544 288.685 124.614 288.786C124.684 288.887 124.719 289.005 124.719 289.141C124.719 289.225 124.702 289.308 124.667 289.391C124.632 289.474 124.57 289.565 124.48 289.665C124.39 289.765 124.261 289.885 124.095 290.023L123.891 290.193V290.206H124.743V290.679H123.068ZM125.106 290.679L125.962 288.983V288.97H124.956V288.497H126.576V288.97L125.715 290.679H125.106Z" fill="white" fill-opacity="0.23"/>
<path d="M122.954 308.85V308.424L123.768 307.75C123.822 307.706 123.868 307.664 123.906 307.625C123.945 307.585 123.975 307.544 123.996 307.502C124.017 307.46 124.028 307.414 124.028 307.363C124.028 307.306 124.016 307.259 123.992 307.219C123.968 307.179 123.935 307.148 123.894 307.127C123.852 307.105 123.803 307.094 123.749 307.094C123.694 307.094 123.646 307.105 123.604 307.127C123.563 307.149 123.531 307.181 123.508 307.224C123.485 307.267 123.474 307.319 123.474 307.38H122.911C122.911 307.226 122.946 307.094 123.015 306.983C123.083 306.873 123.181 306.787 123.307 306.728C123.432 306.668 123.58 306.638 123.749 306.638C123.923 306.638 124.075 306.666 124.202 306.722C124.331 306.778 124.43 306.856 124.5 306.957C124.57 307.058 124.605 307.176 124.605 307.311C124.605 307.395 124.588 307.479 124.553 307.562C124.518 307.644 124.456 307.735 124.365 307.836C124.275 307.936 124.147 308.055 123.981 308.194L123.776 308.364V308.377H124.629V308.85H122.954ZM124.825 308.509V308.049L125.703 306.668H126.121V307.282H125.882L125.409 308.032V308.049H126.704V308.509H124.825ZM125.886 308.85V308.368L125.899 308.168V306.668H126.453V308.85H125.886Z" fill="white" fill-opacity="0.23"/>
<path d="M122.98 317.935V317.509L123.794 316.836C123.848 316.791 123.894 316.749 123.933 316.71C123.972 316.67 124.002 316.629 124.022 316.587C124.043 316.545 124.054 316.499 124.054 316.448C124.054 316.392 124.042 316.344 124.018 316.304C123.994 316.264 123.962 316.234 123.92 316.212C123.878 316.19 123.83 316.179 123.775 316.179C123.72 316.179 123.672 316.19 123.63 316.212C123.589 316.234 123.557 316.267 123.534 316.309C123.511 316.352 123.5 316.404 123.5 316.465H122.938C122.938 316.311 122.972 316.179 123.041 316.069C123.11 315.958 123.207 315.873 123.333 315.813C123.459 315.753 123.606 315.723 123.775 315.723C123.95 315.723 124.101 315.751 124.229 315.808C124.357 315.863 124.456 315.941 124.526 316.042C124.596 316.143 124.632 316.261 124.632 316.397C124.632 316.48 124.614 316.564 124.579 316.647C124.545 316.729 124.482 316.821 124.392 316.921C124.302 317.021 124.173 317.14 124.007 317.279L123.803 317.449V317.462H124.655V317.935H122.98ZM125.793 317.965C125.626 317.965 125.477 317.935 125.347 317.876C125.218 317.817 125.116 317.735 125.041 317.63C124.967 317.526 124.93 317.406 124.928 317.27H125.504C125.506 317.346 125.535 317.406 125.591 317.45C125.648 317.495 125.715 317.517 125.793 317.517C125.854 317.517 125.907 317.505 125.953 317.479C125.999 317.453 126.035 317.416 126.062 317.368C126.088 317.321 126.101 317.265 126.1 317.202C126.101 317.138 126.088 317.083 126.062 317.036C126.035 316.988 125.999 316.952 125.953 316.926C125.907 316.9 125.854 316.887 125.793 316.887C125.731 316.887 125.673 316.902 125.62 316.933C125.567 316.962 125.528 317.004 125.504 317.057L124.984 316.955L125.069 315.753H126.535V316.226H125.555L125.512 316.708H125.525C125.559 316.642 125.618 316.587 125.702 316.544C125.785 316.5 125.883 316.478 125.994 316.478C126.124 316.478 126.239 316.508 126.341 316.568C126.443 316.629 126.524 316.712 126.583 316.819C126.642 316.924 126.672 317.047 126.671 317.185C126.672 317.337 126.636 317.472 126.562 317.59C126.49 317.707 126.388 317.799 126.257 317.866C126.125 317.932 125.971 317.965 125.793 317.965Z" fill="white" fill-opacity="0.23"/>
<path d="M122.957 327.02V326.594L123.771 325.921C123.825 325.876 123.871 325.834 123.909 325.795C123.948 325.755 123.978 325.715 123.999 325.673C124.02 325.631 124.031 325.584 124.031 325.533C124.031 325.477 124.019 325.429 123.994 325.389C123.971 325.349 123.938 325.319 123.896 325.298C123.855 325.276 123.806 325.265 123.752 325.265C123.697 325.265 123.649 325.276 123.607 325.298C123.565 325.32 123.534 325.352 123.511 325.395C123.488 325.437 123.477 325.489 123.477 325.55H122.914C122.914 325.397 122.949 325.265 123.018 325.154C123.086 325.043 123.184 324.958 123.309 324.898C123.435 324.838 123.583 324.809 123.752 324.809C123.926 324.809 124.078 324.837 124.205 324.893C124.334 324.948 124.433 325.026 124.503 325.127C124.573 325.228 124.608 325.346 124.608 325.482C124.608 325.566 124.591 325.649 124.556 325.732C124.521 325.815 124.459 325.906 124.368 326.006C124.278 326.106 124.15 326.226 123.984 326.364L123.779 326.534V326.547H124.632V327.02H122.957ZM125.808 327.05C125.681 327.05 125.56 327.03 125.446 326.99C125.332 326.95 125.231 326.886 125.143 326.8C125.055 326.713 124.986 326.6 124.936 326.461C124.886 326.322 124.861 326.153 124.862 325.955C124.863 325.778 124.886 325.619 124.93 325.478C124.976 325.336 125.04 325.216 125.123 325.117C125.207 325.017 125.307 324.941 125.424 324.889C125.54 324.835 125.67 324.809 125.812 324.809C125.973 324.809 126.114 324.84 126.236 324.901C126.359 324.963 126.456 325.046 126.528 325.15C126.602 325.253 126.644 325.366 126.656 325.49H126.072C126.059 325.429 126.028 325.384 125.979 325.355C125.93 325.326 125.875 325.311 125.812 325.311C125.688 325.311 125.597 325.365 125.539 325.473C125.481 325.581 125.452 325.723 125.45 325.9H125.463C125.491 325.833 125.533 325.776 125.589 325.728C125.645 325.68 125.71 325.644 125.785 325.618C125.859 325.593 125.938 325.58 126.021 325.58C126.153 325.58 126.269 325.61 126.367 325.669C126.467 325.729 126.544 325.811 126.6 325.914C126.655 326.018 126.682 326.137 126.682 326.27C126.682 326.427 126.646 326.563 126.571 326.68C126.497 326.798 126.394 326.889 126.263 326.953C126.132 327.018 125.98 327.05 125.808 327.05ZM125.804 326.603C125.863 326.603 125.915 326.589 125.961 326.562C126.007 326.535 126.043 326.498 126.068 326.451C126.094 326.405 126.107 326.351 126.106 326.292C126.107 326.231 126.094 326.178 126.068 326.132C126.043 326.085 126.007 326.048 125.961 326.021C125.915 325.994 125.863 325.98 125.804 325.98C125.761 325.98 125.72 325.988 125.684 326.004C125.647 326.019 125.616 326.041 125.589 326.069C125.562 326.097 125.54 326.13 125.525 326.168C125.51 326.206 125.502 326.247 125.501 326.292C125.502 326.351 125.516 326.405 125.542 326.451C125.568 326.498 125.604 326.535 125.649 326.562C125.695 326.589 125.746 326.603 125.804 326.603Z" fill="white" fill-opacity="0.23"/>
<path d="M122.971 299.765V299.338L123.785 298.665C123.839 298.62 123.886 298.578 123.924 298.539C123.963 298.5 123.993 298.459 124.013 298.417C124.035 298.375 124.045 298.328 124.045 298.277C124.045 298.221 124.033 298.173 124.009 298.133C123.986 298.094 123.953 298.063 123.911 298.042C123.869 298.02 123.821 298.009 123.766 298.009C123.712 298.009 123.663 298.02 123.621 298.042C123.58 298.064 123.548 298.096 123.525 298.139C123.503 298.181 123.491 298.233 123.491 298.294H122.929C122.929 298.141 122.963 298.009 123.032 297.898C123.101 297.787 123.198 297.702 123.324 297.642C123.45 297.583 123.597 297.553 123.766 297.553C123.941 297.553 124.092 297.581 124.22 297.637C124.349 297.692 124.448 297.771 124.517 297.871C124.588 297.972 124.623 298.091 124.623 298.226C124.623 298.31 124.605 298.393 124.571 298.477C124.536 298.559 124.473 298.65 124.383 298.75C124.293 298.85 124.165 298.97 123.998 299.108L123.794 299.279V299.292H124.646V299.765H122.971ZM125.763 299.794C125.591 299.794 125.439 299.765 125.305 299.706C125.172 299.646 125.068 299.564 124.992 299.46C124.916 299.355 124.878 299.235 124.877 299.1H125.473C125.474 299.142 125.487 299.179 125.512 299.213C125.537 299.245 125.572 299.271 125.616 299.289C125.66 299.308 125.711 299.317 125.767 299.317C125.822 299.317 125.87 299.308 125.912 299.288C125.954 299.268 125.987 299.241 126.01 299.206C126.034 299.171 126.045 299.132 126.044 299.087C126.045 299.043 126.032 299.004 126.004 298.97C125.977 298.936 125.939 298.909 125.89 298.89C125.841 298.871 125.784 298.861 125.721 298.861H125.499V298.452H125.721C125.78 298.452 125.831 298.442 125.876 298.423C125.922 298.404 125.957 298.377 125.982 298.343C126.007 298.309 126.02 298.27 126.019 298.226C126.02 298.184 126.009 298.146 125.988 298.113C125.967 298.081 125.937 298.055 125.898 298.037C125.861 298.018 125.817 298.009 125.767 298.009C125.713 298.009 125.665 298.018 125.623 298.038C125.581 298.057 125.548 298.083 125.523 298.118C125.499 298.152 125.487 298.191 125.486 298.235H124.919C124.92 298.101 124.957 297.983 125.029 297.881C125.102 297.779 125.202 297.698 125.33 297.64C125.457 297.582 125.603 297.553 125.767 297.553C125.929 297.553 126.071 297.58 126.195 297.635C126.319 297.69 126.416 297.765 126.485 297.861C126.556 297.956 126.591 298.065 126.59 298.188C126.591 298.31 126.549 298.41 126.464 298.488C126.38 298.566 126.272 298.613 126.142 298.627V298.644C126.319 298.663 126.451 298.717 126.54 298.806C126.629 298.894 126.672 299.005 126.671 299.138C126.672 299.266 126.633 299.379 126.556 299.478C126.479 299.577 126.372 299.654 126.235 299.71C126.099 299.766 125.941 299.794 125.763 299.794Z" fill="white" fill-opacity="0.23"/>
<path d="M123.068 336.106V335.679L123.882 335.006C123.936 334.961 123.982 334.919 124.021 334.88C124.06 334.841 124.089 334.8 124.11 334.758C124.131 334.716 124.142 334.669 124.142 334.618C124.142 334.562 124.13 334.514 124.106 334.474C124.082 334.435 124.05 334.404 124.008 334.383C123.966 334.361 123.918 334.35 123.863 334.35C123.808 334.35 123.76 334.361 123.718 334.383C123.677 334.405 123.645 334.437 123.622 334.48C123.599 334.522 123.588 334.574 123.588 334.635H123.026C123.026 334.482 123.06 334.35 123.129 334.239C123.198 334.128 123.295 334.043 123.421 333.983C123.546 333.924 123.694 333.894 123.863 333.894C124.038 333.894 124.189 333.922 124.317 333.978C124.445 334.033 124.544 334.112 124.614 334.212C124.684 334.313 124.719 334.432 124.719 334.567C124.719 334.651 124.702 334.734 124.667 334.818C124.632 334.9 124.57 334.991 124.48 335.091C124.39 335.191 124.261 335.311 124.095 335.449L123.891 335.62V335.633H124.743V336.106H123.068ZM125.106 336.106L125.962 334.409V334.397H124.956V333.924H126.576V334.397L125.715 336.106H125.106Z" fill="white" fill-opacity="0.23"/>
<path d="M105.881 175.628H261.837C264.35 175.628 266.387 177.665 266.387 180.178V186.227H105.881V175.628Z" fill="#F0E5E5"/>
<circle cx="110.424" cy="181.685" r="1.51421" fill="#FF7D7D"/>
<circle cx="116.48" cy="181.685" r="1.51421" fill="#EFD33E"/>
<circle cx="122.537" cy="181.685" r="1.51421" fill="#32CB5D"/>
<path d="M27.1421 178.728C27.1421 177.016 28.53 175.628 30.2421 175.628H95.2814V186.227H27.1421V178.728Z" fill="#F0E5E5"/>
<circle cx="31.6847" cy="181.685" r="1.51421" fill="#FF7D7D"/>
<circle cx="37.7415" cy="181.685" r="1.51421" fill="#EFD33E"/>
<circle cx="43.7984" cy="181.685" r="1.51421" fill="#32CB5D"/>
<path d="M122.971 208.912V208.486L123.785 207.813C123.839 207.768 123.886 207.726 123.924 207.687C123.963 207.647 123.993 207.606 124.013 207.564C124.035 207.522 124.045 207.476 124.045 207.425C124.045 207.369 124.033 207.321 124.009 207.281C123.986 207.241 123.953 207.211 123.911 207.189C123.869 207.167 123.821 207.156 123.766 207.156C123.712 207.156 123.663 207.167 123.621 207.189C123.58 207.211 123.548 207.244 123.525 207.286C123.503 207.329 123.491 207.381 123.491 207.442H122.929C122.929 207.288 122.963 207.156 123.032 207.046C123.101 206.935 123.198 206.85 123.324 206.79C123.45 206.73 123.597 206.7 123.766 206.7C123.941 206.7 124.092 206.728 124.22 206.785C124.349 206.84 124.448 206.918 124.517 207.019C124.588 207.12 124.623 207.238 124.623 207.374C124.623 207.457 124.605 207.541 124.571 207.624C124.536 207.706 124.473 207.798 124.383 207.898C124.293 207.998 124.165 208.117 123.998 208.256L123.794 208.426V208.439H124.646V208.912H122.971ZM125.763 208.942C125.591 208.942 125.439 208.912 125.305 208.853C125.172 208.794 125.068 208.712 124.992 208.607C124.916 208.503 124.878 208.383 124.877 208.247H125.473C125.474 208.289 125.487 208.327 125.512 208.36C125.537 208.393 125.572 208.418 125.616 208.437C125.66 208.455 125.711 208.465 125.767 208.465C125.822 208.465 125.87 208.455 125.912 208.436C125.954 208.416 125.987 208.389 126.01 208.354C126.034 208.319 126.045 208.279 126.044 208.234C126.045 208.19 126.032 208.151 126.004 208.117C125.977 208.083 125.939 208.057 125.89 208.037C125.841 208.018 125.784 208.009 125.721 208.009H125.499V207.6H125.721C125.78 207.6 125.831 207.59 125.876 207.571C125.922 207.552 125.957 207.525 125.982 207.491C126.007 207.457 126.02 207.418 126.019 207.374C126.02 207.331 126.009 207.293 125.988 207.261C125.967 207.228 125.937 207.203 125.898 207.184C125.861 207.166 125.817 207.156 125.767 207.156C125.713 207.156 125.665 207.166 125.623 207.185C125.581 207.204 125.548 207.231 125.523 207.265C125.499 207.299 125.487 207.338 125.486 207.382H124.919C124.92 207.249 124.957 207.131 125.029 207.029C125.102 206.926 125.202 206.846 125.33 206.788C125.457 206.73 125.603 206.7 125.767 206.7C125.929 206.7 126.071 206.728 126.195 206.782C126.319 206.837 126.416 206.912 126.485 207.008C126.556 207.103 126.591 207.212 126.59 207.335C126.591 207.457 126.549 207.558 126.464 207.636C126.38 207.714 126.272 207.76 126.142 207.774V207.791C126.319 207.81 126.451 207.864 126.54 207.953C126.629 208.041 126.672 208.152 126.671 208.286C126.672 208.413 126.633 208.527 126.556 208.625C126.479 208.724 126.372 208.802 126.235 208.858C126.099 208.914 125.941 208.942 125.763 208.942Z" fill="white" fill-opacity="0.23"/>
<path d="M122.971 199.827V199.401L123.785 198.727C123.839 198.683 123.886 198.641 123.924 198.602C123.963 198.562 123.993 198.521 124.013 198.479C124.035 198.437 124.045 198.391 124.045 198.34C124.045 198.283 124.033 198.236 124.009 198.196C123.986 198.156 123.953 198.125 123.911 198.104C123.869 198.082 123.821 198.071 123.766 198.071C123.712 198.071 123.663 198.082 123.621 198.104C123.58 198.126 123.548 198.158 123.525 198.201C123.503 198.244 123.491 198.296 123.491 198.357H122.929C122.929 198.203 122.963 198.071 123.032 197.96C123.101 197.85 123.198 197.764 123.324 197.705C123.45 197.645 123.597 197.615 123.766 197.615C123.941 197.615 124.092 197.643 124.22 197.699C124.349 197.755 124.448 197.833 124.517 197.934C124.588 198.035 124.623 198.153 124.623 198.288C124.623 198.372 124.605 198.456 124.571 198.539C124.536 198.621 124.473 198.712 124.383 198.813C124.293 198.913 124.165 199.032 123.998 199.171L123.794 199.341V199.354H124.646V199.827H122.971ZM125.763 199.857C125.591 199.857 125.439 199.827 125.305 199.768C125.172 199.709 125.068 199.627 124.992 199.522C124.916 199.418 124.878 199.298 124.877 199.162H125.473C125.474 199.204 125.487 199.242 125.512 199.275C125.537 199.308 125.572 199.333 125.616 199.352C125.66 199.37 125.711 199.379 125.767 199.379C125.822 199.379 125.87 199.37 125.912 199.351C125.954 199.331 125.987 199.303 126.01 199.269C126.034 199.234 126.045 199.194 126.044 199.149C126.045 199.105 126.032 199.066 126.004 199.032C125.977 198.998 125.939 198.971 125.89 198.952C125.841 198.933 125.784 198.923 125.721 198.923H125.499V198.514H125.721C125.78 198.514 125.831 198.505 125.876 198.486C125.922 198.466 125.957 198.44 125.982 198.406C126.007 198.372 126.02 198.332 126.019 198.288C126.02 198.246 126.009 198.208 125.988 198.176C125.967 198.143 125.937 198.117 125.898 198.099C125.861 198.08 125.817 198.071 125.767 198.071C125.713 198.071 125.665 198.081 125.623 198.1C125.581 198.119 125.548 198.146 125.523 198.18C125.499 198.214 125.487 198.253 125.486 198.297H124.919C124.92 198.163 124.957 198.046 125.029 197.943C125.102 197.841 125.202 197.761 125.33 197.702C125.457 197.644 125.603 197.615 125.767 197.615C125.929 197.615 126.071 197.642 126.195 197.697C126.319 197.752 126.416 197.827 126.485 197.923C126.556 198.018 126.591 198.127 126.59 198.25C126.591 198.372 126.549 198.472 126.464 198.551C126.38 198.629 126.272 198.675 126.142 198.689V198.706C126.319 198.725 126.451 198.779 126.54 198.868C126.629 198.956 126.672 199.067 126.671 199.2C126.672 199.328 126.633 199.441 126.556 199.54C126.479 199.639 126.372 199.716 126.235 199.772C126.099 199.829 125.941 199.857 125.763 199.857Z" fill="white" fill-opacity="0.23"/>
<path d="M122.954 217.997V217.571L123.768 216.898C123.822 216.853 123.868 216.811 123.906 216.772C123.945 216.732 123.975 216.692 123.996 216.65C124.017 216.608 124.028 216.561 124.028 216.51C124.028 216.454 124.016 216.406 123.992 216.366C123.968 216.326 123.935 216.296 123.894 216.275C123.852 216.253 123.803 216.242 123.749 216.242C123.694 216.242 123.646 216.253 123.604 216.275C123.563 216.297 123.531 216.329 123.508 216.372C123.485 216.414 123.474 216.466 123.474 216.527H122.911C122.911 216.374 122.946 216.242 123.015 216.131C123.083 216.02 123.181 215.935 123.307 215.875C123.432 215.815 123.58 215.786 123.749 215.786C123.923 215.786 124.075 215.814 124.202 215.87C124.331 215.925 124.43 216.003 124.5 216.104C124.57 216.205 124.605 216.323 124.605 216.459C124.605 216.543 124.588 216.626 124.553 216.709C124.518 216.792 124.456 216.883 124.365 216.983C124.275 217.083 124.147 217.203 123.981 217.341L123.776 217.511V217.524H124.629V217.997H122.954ZM124.825 217.656V217.196L125.703 215.815H126.121V216.429H125.882L125.409 217.179V217.196H126.704V217.656H124.825ZM125.886 217.997V217.516L125.899 217.315V215.815H126.453V217.997H125.886Z" fill="white" fill-opacity="0.23"/>
<path d="M122.98 227.083V226.656L123.794 225.983C123.848 225.938 123.894 225.896 123.933 225.857C123.972 225.818 124.002 225.777 124.022 225.735C124.043 225.693 124.054 225.646 124.054 225.595C124.054 225.539 124.042 225.491 124.018 225.452C123.994 225.412 123.962 225.381 123.92 225.36C123.878 225.338 123.83 225.327 123.775 225.327C123.72 225.327 123.672 225.338 123.63 225.36C123.589 225.382 123.557 225.414 123.534 225.457C123.511 225.499 123.5 225.551 123.5 225.612H122.938C122.938 225.459 122.972 225.327 123.041 225.216C123.11 225.105 123.207 225.02 123.333 224.96C123.459 224.901 123.606 224.871 123.775 224.871C123.95 224.871 124.101 224.899 124.229 224.955C124.357 225.01 124.456 225.089 124.526 225.189C124.596 225.29 124.632 225.409 124.632 225.544C124.632 225.628 124.614 225.711 124.579 225.795C124.545 225.877 124.482 225.968 124.392 226.068C124.302 226.168 124.173 226.288 124.007 226.426L123.803 226.597V226.61H124.655V227.083H122.98ZM125.793 227.112C125.626 227.112 125.477 227.083 125.347 227.024C125.218 226.964 125.116 226.882 125.041 226.778C124.967 226.673 124.93 226.553 124.928 226.418H125.504C125.506 226.493 125.535 226.553 125.591 226.598C125.648 226.643 125.715 226.665 125.793 226.665C125.854 226.665 125.907 226.652 125.953 226.627C125.999 226.6 126.035 226.563 126.062 226.516C126.088 226.468 126.101 226.413 126.1 226.35C126.101 226.286 126.088 226.23 126.062 226.183C126.035 226.136 125.999 226.099 125.953 226.074C125.907 226.047 125.854 226.034 125.793 226.034C125.731 226.034 125.673 226.05 125.62 226.08C125.567 226.11 125.528 226.151 125.504 226.205L124.984 226.102L125.069 224.901H126.535V225.374H125.555L125.512 225.855H125.525C125.559 225.789 125.618 225.735 125.702 225.691C125.785 225.647 125.883 225.625 125.994 225.625C126.124 225.625 126.239 225.655 126.341 225.716C126.443 225.776 126.524 225.86 126.583 225.966C126.642 226.072 126.672 226.194 126.671 226.333C126.672 226.485 126.636 226.619 126.562 226.737C126.49 226.855 126.388 226.947 126.257 227.013C126.125 227.079 125.971 227.112 125.793 227.112Z" fill="white" fill-opacity="0.23"/>
<path d="M122.957 236.168V235.742L123.771 235.068C123.825 235.024 123.871 234.982 123.909 234.943C123.948 234.903 123.978 234.862 123.999 234.82C124.02 234.778 124.031 234.732 124.031 234.681C124.031 234.624 124.019 234.577 123.994 234.537C123.971 234.497 123.938 234.466 123.896 234.445C123.855 234.423 123.806 234.412 123.752 234.412C123.697 234.412 123.649 234.423 123.607 234.445C123.565 234.467 123.534 234.499 123.511 234.542C123.488 234.585 123.477 234.637 123.477 234.698H122.914C122.914 234.544 122.949 234.412 123.018 234.301C123.086 234.191 123.184 234.105 123.309 234.046C123.435 233.986 123.583 233.956 123.752 233.956C123.926 233.956 124.078 233.984 124.205 234.04C124.334 234.096 124.433 234.174 124.503 234.275C124.573 234.376 124.608 234.494 124.608 234.629C124.608 234.713 124.591 234.797 124.556 234.88C124.521 234.962 124.459 235.053 124.368 235.154C124.278 235.254 124.15 235.373 123.984 235.512L123.779 235.682V235.695H124.632V236.168H122.957ZM125.808 236.198C125.681 236.198 125.56 236.178 125.446 236.138C125.332 236.097 125.231 236.034 125.143 235.947C125.055 235.861 124.986 235.748 124.936 235.608C124.886 235.469 124.861 235.301 124.862 235.102C124.863 234.926 124.886 234.767 124.93 234.625C124.976 234.484 125.04 234.363 125.123 234.264C125.207 234.165 125.307 234.089 125.424 234.036C125.54 233.983 125.67 233.956 125.812 233.956C125.973 233.956 126.114 233.987 126.236 234.049C126.359 234.111 126.456 234.193 126.528 234.297C126.602 234.4 126.644 234.514 126.656 234.638H126.072C126.059 234.576 126.028 234.531 125.979 234.503C125.93 234.474 125.875 234.459 125.812 234.459C125.688 234.459 125.597 234.513 125.539 234.621C125.481 234.729 125.452 234.871 125.45 235.047H125.463C125.491 234.98 125.533 234.923 125.589 234.876C125.645 234.828 125.71 234.791 125.785 234.766C125.859 234.74 125.938 234.727 126.021 234.727C126.153 234.727 126.269 234.757 126.367 234.817C126.467 234.877 126.544 234.958 126.6 235.062C126.655 235.166 126.682 235.284 126.682 235.418C126.682 235.574 126.646 235.711 126.571 235.828C126.497 235.945 126.394 236.036 126.263 236.101C126.132 236.165 125.98 236.198 125.808 236.198ZM125.804 235.75C125.863 235.75 125.915 235.737 125.961 235.71C126.007 235.683 126.043 235.646 126.068 235.599C126.094 235.552 126.107 235.499 126.106 235.439C126.107 235.379 126.094 235.325 126.068 235.279C126.043 235.232 126.007 235.195 125.961 235.168C125.915 235.142 125.863 235.128 125.804 235.128C125.761 235.128 125.72 235.136 125.684 235.151C125.647 235.166 125.616 235.188 125.589 235.216C125.562 235.244 125.54 235.277 125.525 235.316C125.51 235.353 125.502 235.394 125.501 235.439C125.502 235.499 125.516 235.552 125.542 235.599C125.568 235.646 125.604 235.683 125.649 235.71C125.695 235.737 125.746 235.75 125.804 235.75Z" fill="white" fill-opacity="0.23"/>
<path d="M123.068 245.253V244.827L123.882 244.154C123.936 244.109 123.982 244.067 124.021 244.028C124.06 243.988 124.089 243.947 124.11 243.905C124.131 243.863 124.142 243.817 124.142 243.766C124.142 243.71 124.13 243.662 124.106 243.622C124.082 243.582 124.05 243.552 124.008 243.53C123.966 243.508 123.918 243.497 123.863 243.497C123.808 243.497 123.76 243.508 123.718 243.53C123.677 243.552 123.645 243.585 123.622 243.627C123.599 243.67 123.588 243.722 123.588 243.783H123.026C123.026 243.629 123.06 243.497 123.129 243.387C123.198 243.276 123.295 243.191 123.421 243.131C123.546 243.071 123.694 243.041 123.863 243.041C124.038 243.041 124.189 243.069 124.317 243.126C124.445 243.181 124.544 243.259 124.614 243.36C124.684 243.461 124.719 243.579 124.719 243.715C124.719 243.798 124.702 243.882 124.667 243.965C124.632 244.047 124.57 244.139 124.48 244.239C124.39 244.339 124.261 244.458 124.095 244.597L123.891 244.767V244.78H124.743V245.253H123.068ZM125.106 245.253L125.962 243.557V243.544H124.956V243.071H126.576V243.544L125.715 245.253H125.106Z" fill="white" fill-opacity="0.23"/>
<rect x="131.622" y="196.827" width="102.966" height="4.54262" rx="2.27131" fill="#F39494" fill-opacity="0.34"/>
<rect x="131.622" y="205.912" width="116.594" height="4.54262" rx="2.27131" fill="#EFBFBF" fill-opacity="0.34"/>
<rect x="131.622" y="214.997" width="110.537" height="4.54262" rx="2.27131" fill="#C8C1F5" fill-opacity="0.21"/>
<rect x="131.622" y="224.083" width="102.966" height="4.54262" rx="2.27131" fill="#EBF3DE" fill-opacity="0.34"/>
<rect x="131.622" y="233.168" width="109.023" height="4.54262" rx="2.27131" fill="#F394EF" fill-opacity="0.34"/>
<rect x="131.622" y="242.253" width="122.651" height="4.54262" rx="2.27131" fill="#E6F394" fill-opacity="0.34"/>
<rect x="131.622" y="251.338" width="112.051" height="4.54262" rx="2.27131" fill="#AF9898" fill-opacity="0.34"/>
<rect x="131.622" y="260.424" width="89.3383" height="4.54262" rx="2.27131" fill="#B7D5C1" fill-opacity="0.34"/>
<rect x="131.622" y="269.509" width="75.7104" height="4.54262" rx="2.27131" fill="#F3EF94" fill-opacity="0.34"/>
<rect x="131.622" y="278.594" width="116.594" height="4.54262" rx="2.27131" fill="#94B4F3" fill-opacity="0.34"/>
<rect x="131.622" y="287.679" width="92.3667" height="4.54262" rx="2.27131" fill="#9CF394" fill-opacity="0.34"/>
<rect x="131.622" y="296.765" width="116.594" height="4.54262" rx="2.27131" fill="#F394EF" fill-opacity="0.34"/>
<rect x="131.622" y="305.85" width="101.452" height="4.54262" rx="2.27131" fill="#94F3D1" fill-opacity="0.34"/>
<rect x="131.622" y="314.935" width="116.594" height="4.54262" rx="2.27131" fill="#F39494" fill-opacity="0.34"/>
<rect x="131.622" y="324.02" width="68.1394" height="4.54262" rx="2.27131" fill="#F39494" fill-opacity="0.34"/>
<rect x="131.622" y="333.106" width="116.594" height="4.54262" rx="2.27131" fill="#94B4F3" fill-opacity="0.34"/>
<path d="M27.1421 186.227H95.2814V361.875H31.2421C28.9777 361.875 27.1421 360.04 27.1421 357.775V186.227Z" fill="#EDEBEB"/>
<rect x="39.2557" y="293.736" width="45.4263" height="43.912" fill="#D9D9D9"/>
<rect x="39.2557" y="201.369" width="45.4263" height="43.912" fill="#D9D9D9"/>
<path d="M39.2557 251.338H55.912H72.5683" stroke="#8B7F7F"/>
<path d="M39.2557 255.881H61.2118H83.1678" stroke="#8B7F7F"/>
<path d="M39.2557 260.424H61.2118H83.1678" stroke="#8B7F7F"/>
<path d="M39.2557 264.966H61.2118H83.1678" stroke="#8B7F7F"/>
<path d="M39.2557 269.509H55.912H72.5683" stroke="#8B7F7F"/>
<path d="M39.2557 274.051H61.2118H83.1678" stroke="#8B7F7F"/>
<path d="M39.2557 278.594H61.2118H83.1678" stroke="#8B7F7F"/>
<path d="M39.2557 283.137H61.2118H83.1678" stroke="#8B7F7F"/>
<rect x="93.7672" y="175.628" width="12.1137" height="186.248" fill="#FFDFDF"/>
<path d="M12 375.503H281.529V398.959C281.529 401.058 279.828 402.759 277.729 402.759H15.8C13.7013 402.759 12 401.058 12 398.959V375.503Z" fill="#DDDDDD"/>
<circle cx="146.765" cy="389.131" r="6.05683" fill="black"/>
<rect x="105.881" y="402.759" width="83.2815" height="30.2842" fill="#C5C5C5"/>
<rect x="90.2791" y="430.64" width="113.86" height="5.33721" fill="#D9D9D9"/>
<path d="M189.162 416.387L105.881 408.816V402.759H189.162V416.387Z" fill="#6A6363"/>
<rect y="436" width="413" height="20" rx="8" fill="#3E3939"/>
<rect x="86" y="66" width="208" height="17" rx="7" fill="#413939"/>
<rect x="114" width="22" height="66" fill="#C2D7B5"/>
<rect x="136" y="16" width="22" height="50" fill="#F8B2B2"/>
<rect x="155.909" y="6.29175" width="22.4398" height="61.278" transform="rotate(-14 155.909 6.29175)" fill="#8EB1DA"/>
<rect x="217.187" y="22.4398" width="36.249" height="43.1535" rx="5" fill="#D9D9D9"/>
<rect x="223.983" y="27.7394" width="23.4108" height="15.8987" rx="2" fill="#9A8484"/>
<ellipse cx="228.515" cy="50.4518" rx="1.51037" ry="1.51416" fill="#ED9A9A"/>
<ellipse cx="232.29" cy="54.2372" rx="1.51037" ry="1.51416" fill="#ED9A9A"/>
<ellipse cx="228.515" cy="58.0226" rx="1.51037" ry="1.51416" fill="#ED9A9A"/>
<ellipse cx="224.739" cy="54.2372" rx="1.51037" ry="1.51416" fill="#ED9A9A"/>
<rect x="242.863" y="50.4518" width="1.51037" height="3.02832" fill="#3E3434"/>
<rect x="242.863" y="50.4518" width="1.51037" height="3.02832" fill="#3E3434"/>
<rect x="242.863" y="50.4518" width="1.51037" height="3.02832" fill="#786C6C"/>
<rect x="242.863" y="56.5084" width="1.51037" height="3.02832" fill="#3E3434"/>
<rect x="242.863" y="56.5084" width="1.51037" height="3.02832" fill="#3E3434"/>
<rect x="242.863" y="56.5084" width="1.51037" height="3.02832" fill="#786C6C"/>
<rect x="245.129" y="54.2372" width="3.02075" height="1.51416" fill="#3E3434"/>
<rect x="245.129" y="54.2372" width="3.02075" height="1.51416" fill="#3E3434"/>
<rect x="245.129" y="54.2372" width="3.02075" height="1.51416" fill="#786C6C"/>
<rect x="239.087" y="54.2372" width="3.02075" height="1.51416" fill="#3E3434"/>
<rect x="239.087" y="54.2372" width="3.02075" height="1.51416" fill="#3E3434"/>
<rect x="239.087" y="54.2372" width="3.02075" height="1.51416" fill="#786C6C"/>
<rect x="342" y="365" width="7" height="57" fill="#D9D9D9" fill-opacity="0.78"/>
<ellipse cx="345" cy="358.5" rx="23" ry="20.5" fill="#E6EACA"/>
<path d="M328.217 322.763C336.155 313.595 340.123 309.011 345.242 309.083C350.362 309.154 354.2 313.848 361.878 323.234L367.266 329.821C380 345.389 386.367 353.172 383.386 359.461C380.406 365.75 370.35 365.75 350.237 365.75H339.147C318.386 365.75 308.006 365.75 305.068 359.322C302.131 352.893 308.925 345.046 322.514 329.35L328.217 322.763Z" fill="#765A7A"/>
<path d="M321 426.75C321 423.022 324.022 420 327.75 420H363.85C367.247 420 370 422.753 370 426.15V436H321V426.75Z" fill="#D9D9D9"/>
</svg>
