<svg width="279" height="243" viewBox="0 0 279 243" fill="none" xmlns="http://www.w3.org/2000/svg">
<rect x="6.05347" y="31.1317" width="57.9395" height="170.359" fill="#D9D9D9"/>
<rect x="73.5054" y="74.3701" width="57.9395" height="127.121" fill="#D9D9D9"/>
<rect x="220.516" y="125.391" width="57.9395" height="76.0996" fill="#D9D9D9"/>
<rect x="147.011" width="57.9395" height="201.491" fill="#D9D9D9"/>
<path d="M166.182 234.953V233.233H164.402V228.973H166.762V232.473H171.522V224.513H166.182V222.013H172.102V223.773H173.902V233.233H172.102V234.953H166.182ZM176.336 234.953V232.473H183.456V231.473H178.116V229.713H176.336V227.253H178.116V225.513H185.836V227.993H178.696V228.973H184.036V230.733H185.836V233.233H184.036V234.953H176.336Z" fill="black"/>
<path d="M233.662 234.953V233.233H231.882V223.773H233.662V222.013H239.582V223.773H241.382V227.993H239.002V224.513H234.242V232.473H239.002V228.973H241.382V233.233H239.582V234.953H233.662ZM247.396 233.053V229.773H243.836V227.293H247.396V223.613H249.776V227.293H253.356V229.773H249.776V233.053H247.396ZM259.388 233.053V229.773H255.828V227.293H259.388V223.613H261.768V227.293H265.348V229.773H261.768V233.053H259.388Z" fill="black"/>
<path d="M86.9053 234.953V233.233H85.1253V223.773H86.9053V222.013H92.8253V223.773H94.6253V227.993H92.2453V224.513H87.4853V232.473H92.2453V228.973H94.6253V233.233H92.8253V234.953H86.9053ZM97.0589 234.953V232.473H104.179V231.473H98.8389V229.713H97.0589V227.253H98.8389V225.513H106.559V227.993H99.4189V228.973H104.759V230.733H106.559V233.233H104.759V234.953H97.0589ZM108.602 234.953V232.473H115.722V231.473H110.382V229.713H108.602V227.253H110.382V225.513H118.102V227.993H110.962V228.973H116.302V230.733H118.102V233.233H116.302V234.953H108.602Z" fill="black"/>
<path d="M6.72733 234.953V222.013H9.08733V227.253H10.2673V225.513H12.6673V227.253H13.8473V222.013H16.2273V234.953H13.8473V229.713H9.08733V234.953H6.72733ZM22.2009 234.953V233.233H20.4409V227.993H18.6609V225.513H20.4409V222.013H22.8009V225.513H28.1609V227.993H22.8009V232.473H27.5809V230.733H29.9609V233.233H28.1609V234.953H22.2009ZM32.0008 234.953V225.513H37.9408V227.253H39.1208V225.513H43.3008V227.253H45.0608V234.953H42.7208V227.993H39.7008V234.953H37.3408V227.993H34.3608V234.953H32.0008ZM47.1179 234.953V222.013H49.4779V234.953H47.1179Z" fill="black"/>
</svg>
